<?xml version="1.0" encoding="utf-8"?>
<!-- Generator: Adobe Illustrator 23.1.0, SVG Export Plug-In . SVG Version: 6.00 Build 0)  -->
<svg version="1.1" id="Layer_1" xmlns="http://www.w3.org/2000/svg" xmlns:xlink="http://www.w3.org/1999/xlink" x="0px" y="0px"
	 viewBox="0 0 24 24" style="enable-background:new 0 0 24 24;" xml:space="preserve">
<style type="text/css">
	.st0{fill:#8ED6FB;}
	.st1{fill:#1C78C0;}
</style>
<polygon class="st0" points="1.8,18.5 1.8,18.5 11.6,24 11.6,19.7 5.5,16.4 "/>
<polygon class="st0" points="5.2,7.7 11.6,4.1 11.6,0 1.6,5.6 5.1,7.7 "/>
<polygon class="st0" points="18.9,7.7 22.4,5.6 22.4,5.6 12.4,0 12.4,4.1 18.8,7.7 "/>
<polygon class="st0" points="4.7,8.4 1.1,6.4 1.1,17.9 4.7,15.8 "/>
<polygon class="st0" points="19.3,8.4 19.3,15.8 22.9,17.9 22.9,6.4 "/>
<polygon class="st0" points="18.5,16.4 12.4,19.7 12.4,24 22.2,18.5 22.2,18.5 "/>
<polygon class="st1" points="5.6,8.9 5.6,15.5 11.6,18.7 11.6,12.4 "/>
<polygon class="st1" points="12.4,18.7 18.4,15.5 18.4,8.9 12.4,12.4 "/>
<polygon class="st1" points="12,4.9 6,8.2 12,11.7 18,8.2 "/>
</svg>
